<?xml version="1.0" encoding="UTF-8" standalone="no"?>
<!DOCTYPE svg PUBLIC "-//W3C//DTD SVG 1.1//EN" "http://www.w3.org/Graphics/SVG/1.1/DTD/svg11.dtd">
<svg version="1.1" xmlns="http://www.w3.org/2000/svg" xmlns:xlink="http://www.w3.org/1999/xlink" preserveAspectRatio="xMidYMid meet" viewBox="0 0 300 600" width="300" height="600"><defs><path d="M597.99 300C597.99 464.46 464.46 597.99 300 597.99C135.54 597.99 2.01 464.46 2.01 300C2.01 135.54 135.54 2.01 300 2.01C464.46 2.01 597.99 135.54 597.99 300Z" id="a40Qs6Ksxv"></path><path d="M-335.08 349.38C-335.08 511.55 -466.74 643.2 -628.91 643.2C-791.07 643.2 -922.73 511.55 -922.73 349.38C-922.73 187.22 -791.07 55.56 -628.91 55.56C-466.74 55.56 -335.08 187.22 -335.08 349.38Z" id="b2vpEBoJ5"></path><path d="M71.11 285.24C83.93 272.41 186.52 169.83 199.35 157C207.5 148.85 220.73 148.85 228.88 157C237.04 165.16 237.04 178.38 228.88 186.54C221.32 194.1 183.5 231.92 115.42 300C183.49 368.08 221.31 405.9 228.88 413.46C237.03 421.62 237.03 434.84 228.88 442.99C220.72 451.16 207.5 451.16 199.34 442.99C186.52 430.17 83.93 327.59 71.11 314.76C67.04 310.69 65 305.34 65 300C65 294.65 67.04 289.31 71.11 285.24Z" id="d89DRRfqK"></path></defs><g><g><g><use xlink:href="#a40Qs6Ksxv" opacity="1" fill="#000000" fill-opacity="1"></use></g><g><use xlink:href="#b2vpEBoJ5" opacity="1" fill="#ffffff" fill-opacity="1"></use></g><g><use xlink:href="#d89DRRfqK" opacity="1" fill="#ffffff" fill-opacity="1"></use><g><use xlink:href="#d89DRRfqK" opacity="1" fill-opacity="0" stroke="#000000" stroke-width="1" stroke-opacity="0"></use></g></g></g></g></svg>