<?xml version="1.0" standalone="no"?><!DOCTYPE svg PUBLIC "-//W3C//DTD SVG 1.1//EN" "http://www.w3.org/Graphics/SVG/1.1/DTD/svg11.dtd"><svg class="icon" height="512" viewBox="0 0 1316 1024" version="1.1" xmlns="http://www.w3.org/2000/svg"><path d="M1013.714286 477.714286l10.285714 180.571428q2.285714 39.428571-46.857143 73.142857t-134.285714 53.428572-184.571429 19.714286-184.571428-19.714286-134.285715-53.428572-46.857142-73.142857l10.285714-180.571428 328 103.428571q12.571429 4 27.428571 4t27.428572-4z m302.857143-185.142857q0 13.142857-12.571429 17.714285L664 511.428571q-2.285714 0.571429-5.714286 0.571429t-5.714285-0.571429L280 393.714286q-24.571429 19.428571-40.571429 63.714285T220 559.428571q36 20.571429 36 62.285715 0 39.428571-33.142857 61.142857l33.142857 247.428571q1.142857 8-4.571429 14.285715-5.142857 6.285714-13.714285 6.285714H128q-8.571429 0-13.714286-6.285714-5.714286-6.285714-4.571428-14.285715l33.142857-247.428571q-33.142857-21.714286-33.142857-61.142857 0-41.714286 37.142857-63.428572 6.285714-118.285714 56-188.571428l-190.285714-59.428572q-12.571429-4.571429-12.571429-17.714285t12.571429-17.714286L652.571429 73.714286q2.285714-0.571429 5.714285-0.571429t5.714286 0.571429l640 201.142857q12.571429 4.571429 12.571429 17.714286z" /></svg>