<?xml version="1.0" encoding="UTF-8" standalone="no"?>
<!DOCTYPE svg PUBLIC "-//W3C//DTD SVG 1.1//EN" "http://www.w3.org/Graphics/SVG/1.1/DTD/svg11.dtd">
<svg version="1.1" xmlns="http://www.w3.org/2000/svg" xmlns:xlink="http://www.w3.org/1999/xlink" preserveAspectRatio="xMidYMid meet" viewBox="0 0 300 600" width="300" height="600"><defs><path d="M297.99 300C297.99 464.46 164.46 597.99 0 597.99C-164.46 597.99 -297.99 464.46 -297.99 300C-297.99 135.54 -164.46 2.01 0 2.01C164.46 2.01 297.99 135.54 297.99 300Z" id="aeEvG1Pim"></path><path d="M-335.08 349.38C-335.08 511.55 -466.74 643.2 -628.91 643.2C-791.07 643.2 -922.73 511.55 -922.73 349.38C-922.73 187.22 -791.07 55.56 -628.91 55.56C-466.74 55.56 -335.08 187.22 -335.08 349.38Z" id="b2vpEBoJ5"></path><path d="M228.89 314.76C216.07 327.59 113.48 430.17 100.65 443C92.5 451.15 79.27 451.15 71.12 443C62.96 434.84 62.96 421.62 71.12 413.46C78.68 405.9 116.5 368.08 184.58 300C116.51 231.92 78.69 194.1 71.12 186.54C62.97 178.38 62.97 165.16 71.12 157.01C79.28 148.84 92.5 148.84 100.66 157.01C113.48 169.83 216.07 272.41 228.89 285.24C232.96 289.31 235 294.66 235 300C235 305.35 232.96 310.69 228.89 314.76Z" id="b6S2R2cm5"></path></defs><g><g><g><use xlink:href="#aeEvG1Pim" opacity="1" fill="#ffffff" fill-opacity="1"></use></g><g><use xlink:href="#b2vpEBoJ5" opacity="1" fill="#ffffff" fill-opacity="1"></use></g><g><use xlink:href="#b6S2R2cm5" opacity="1" fill="#000000" fill-opacity="1"></use><g><use xlink:href="#b6S2R2cm5" opacity="1" fill-opacity="0" stroke="#000000" stroke-width="1" stroke-opacity="0"></use></g></g></g></g></svg>